<mxfile host="Electron" agent="Mozilla/5.0 (Macintosh; Intel Mac OS X 10_15_7) AppleWebKit/537.36 (KHTML, like Gecko) draw.io/26.0.4 Chrome/128.0.6613.186 Electron/32.2.5 Safari/537.36" version="26.0.4">
  <diagram name="Seite-1" id="yYuzFzbDP16caRqtb8bs">
    <mxGraphModel dx="1158" dy="879" grid="0" gridSize="10" guides="1" tooltips="1" connect="1" arrows="1" fold="1" page="1" pageScale="1" pageWidth="827" pageHeight="1169" math="0" shadow="0">
      <root>
        <mxCell id="0" />
        <mxCell id="1" parent="0" />
        <mxCell id="3EeU_wa0vUKyZ833sroe-156" value="" style="rounded=0;whiteSpace=wrap;html=1;dashed=1;dashPattern=1 4;" vertex="1" parent="1">
          <mxGeometry x="487" y="69" width="247" height="390" as="geometry" />
        </mxCell>
        <mxCell id="3EeU_wa0vUKyZ833sroe-154" value="" style="rounded=0;whiteSpace=wrap;html=1;dashed=1;dashPattern=1 4;" vertex="1" parent="1">
          <mxGeometry x="142" y="69" width="350" height="615" as="geometry" />
        </mxCell>
        <mxCell id="3EeU_wa0vUKyZ833sroe-171" value="" style="rounded=0;whiteSpace=wrap;html=1;fillColor=#f5f5f5;fontColor=#333333;strokeColor=#666666;" vertex="1" parent="1">
          <mxGeometry x="157" y="537" width="319" height="131" as="geometry" />
        </mxCell>
        <mxCell id="3EeU_wa0vUKyZ833sroe-192" value="" style="rounded=1;whiteSpace=wrap;html=1;" vertex="1" parent="1">
          <mxGeometry x="336.1" y="573.51" width="110" height="32" as="geometry" />
        </mxCell>
        <mxCell id="3EeU_wa0vUKyZ833sroe-193" value="" style="rounded=1;whiteSpace=wrap;html=1;" vertex="1" parent="1">
          <mxGeometry x="331.5" y="567.51" width="110" height="32" as="geometry" />
        </mxCell>
        <mxCell id="3EeU_wa0vUKyZ833sroe-191" value="" style="rounded=1;whiteSpace=wrap;html=1;" vertex="1" parent="1">
          <mxGeometry x="336.3" y="624.51" width="110" height="32" as="geometry" />
        </mxCell>
        <mxCell id="3EeU_wa0vUKyZ833sroe-190" value="" style="rounded=1;whiteSpace=wrap;html=1;" vertex="1" parent="1">
          <mxGeometry x="331.7" y="618.51" width="110" height="32" as="geometry" />
        </mxCell>
        <mxCell id="3EeU_wa0vUKyZ833sroe-163" value="" style="rounded=0;whiteSpace=wrap;html=1;fillColor=#f5f5f5;fontColor=#333333;strokeColor=#666666;" vertex="1" parent="1">
          <mxGeometry x="525" y="321" width="189" height="121" as="geometry" />
        </mxCell>
        <mxCell id="3EeU_wa0vUKyZ833sroe-162" value="" style="rounded=0;whiteSpace=wrap;html=1;fillColor=#f5f5f5;fontColor=#333333;strokeColor=#666666;" vertex="1" parent="1">
          <mxGeometry x="516.5" y="312" width="189" height="121" as="geometry" />
        </mxCell>
        <mxCell id="3EeU_wa0vUKyZ833sroe-160" value="" style="rounded=0;whiteSpace=wrap;html=1;fillColor=#f5f5f5;fontColor=#333333;strokeColor=#666666;" vertex="1" parent="1">
          <mxGeometry x="526" y="133.5" width="193" height="158" as="geometry" />
        </mxCell>
        <mxCell id="3EeU_wa0vUKyZ833sroe-159" value="" style="rounded=0;whiteSpace=wrap;html=1;fillColor=#f5f5f5;fontColor=#333333;strokeColor=#666666;" vertex="1" parent="1">
          <mxGeometry x="517" y="125" width="194" height="158" as="geometry" />
        </mxCell>
        <mxCell id="3EeU_wa0vUKyZ833sroe-2" value="" style="rounded=0;whiteSpace=wrap;html=1;fillColor=#f5f5f5;fontColor=#333333;strokeColor=#666666;" vertex="1" parent="1">
          <mxGeometry x="157" y="117" width="159" height="81" as="geometry" />
        </mxCell>
        <mxCell id="3EeU_wa0vUKyZ833sroe-14" value="auth" style="text;html=1;align=center;verticalAlign=middle;whiteSpace=wrap;rounded=0;" vertex="1" parent="1">
          <mxGeometry x="178" y="125" width="40" height="20" as="geometry" />
        </mxCell>
        <mxCell id="3EeU_wa0vUKyZ833sroe-27" style="edgeStyle=orthogonalEdgeStyle;rounded=0;orthogonalLoop=1;jettySize=auto;html=1;exitX=1;exitY=0.5;exitDx=0;exitDy=0;entryX=-0.021;entryY=0.646;entryDx=0;entryDy=0;entryPerimeter=0;endArrow=open;endFill=0;" edge="1" parent="1" source="3EeU_wa0vUKyZ833sroe-16" target="3EeU_wa0vUKyZ833sroe-23">
          <mxGeometry relative="1" as="geometry" />
        </mxCell>
        <mxCell id="3EeU_wa0vUKyZ833sroe-16" value="" style="rounded=1;whiteSpace=wrap;html=1;" vertex="1" parent="1">
          <mxGeometry x="182" y="151.5" width="71" height="32" as="geometry" />
        </mxCell>
        <mxCell id="3EeU_wa0vUKyZ833sroe-17" value="" style="sketch=0;outlineConnect=0;fontColor=#232F3E;gradientColor=none;fillColor=#232F3D;strokeColor=none;dashed=0;verticalLabelPosition=bottom;verticalAlign=top;align=center;html=1;fontSize=12;fontStyle=0;aspect=fixed;pointerEvents=1;shape=mxgraph.aws4.folder;" vertex="1" parent="1">
          <mxGeometry x="189.67" y="159" width="18.67" height="17" as="geometry" />
        </mxCell>
        <mxCell id="3EeU_wa0vUKyZ833sroe-18" value="users" style="text;html=1;align=center;verticalAlign=middle;whiteSpace=wrap;rounded=0;" vertex="1" parent="1">
          <mxGeometry x="210.34" y="157.5" width="38.66" height="20" as="geometry" />
        </mxCell>
        <mxCell id="3EeU_wa0vUKyZ833sroe-25" value="" style="shape=note;whiteSpace=wrap;html=1;backgroundOutline=1;darkOpacity=0.05;size=6;" vertex="1" parent="1">
          <mxGeometry x="285.6" y="159" width="19.2" height="24" as="geometry" />
        </mxCell>
        <mxCell id="3EeU_wa0vUKyZ833sroe-24" value="" style="shape=note;whiteSpace=wrap;html=1;backgroundOutline=1;darkOpacity=0.05;size=6;" vertex="1" parent="1">
          <mxGeometry x="281.6" y="155.5" width="19.2" height="24" as="geometry" />
        </mxCell>
        <mxCell id="3EeU_wa0vUKyZ833sroe-23" value="" style="shape=note;whiteSpace=wrap;html=1;backgroundOutline=1;darkOpacity=0.05;size=6;" vertex="1" parent="1">
          <mxGeometry x="278" y="152" width="19.2" height="24" as="geometry" />
        </mxCell>
        <mxCell id="3EeU_wa0vUKyZ833sroe-28" value="" style="rounded=0;whiteSpace=wrap;html=1;fillColor=#f5f5f5;fontColor=#333333;strokeColor=#666666;" vertex="1" parent="1">
          <mxGeometry x="157" y="211" width="319" height="312" as="geometry" />
        </mxCell>
        <mxCell id="3EeU_wa0vUKyZ833sroe-29" value="infra-management" style="text;html=1;align=center;verticalAlign=middle;whiteSpace=wrap;rounded=0;" vertex="1" parent="1">
          <mxGeometry x="178" y="219" width="117" height="20" as="geometry" />
        </mxCell>
        <mxCell id="3EeU_wa0vUKyZ833sroe-42" value="" style="rounded=1;whiteSpace=wrap;html=1;" vertex="1" parent="1">
          <mxGeometry x="190.67" y="254" width="92" height="32" as="geometry" />
        </mxCell>
        <mxCell id="3EeU_wa0vUKyZ833sroe-41" value="" style="rounded=1;whiteSpace=wrap;html=1;" vertex="1" parent="1">
          <mxGeometry x="186" y="249.5" width="92" height="32" as="geometry" />
        </mxCell>
        <mxCell id="3EeU_wa0vUKyZ833sroe-85" style="edgeStyle=orthogonalEdgeStyle;rounded=0;orthogonalLoop=1;jettySize=auto;html=1;exitX=1;exitY=0.5;exitDx=0;exitDy=0;entryX=0;entryY=0.5;entryDx=0;entryDy=0;endArrow=open;endFill=0;" edge="1" parent="1" source="3EeU_wa0vUKyZ833sroe-32" target="3EeU_wa0vUKyZ833sroe-43">
          <mxGeometry relative="1" as="geometry" />
        </mxCell>
        <mxCell id="3EeU_wa0vUKyZ833sroe-32" value="" style="rounded=1;whiteSpace=wrap;html=1;" vertex="1" parent="1">
          <mxGeometry x="182" y="245.5" width="92" height="32" as="geometry" />
        </mxCell>
        <mxCell id="3EeU_wa0vUKyZ833sroe-33" value="" style="sketch=0;outlineConnect=0;fontColor=#232F3E;gradientColor=none;fillColor=#232F3D;strokeColor=none;dashed=0;verticalLabelPosition=bottom;verticalAlign=top;align=center;html=1;fontSize=12;fontStyle=0;aspect=fixed;pointerEvents=1;shape=mxgraph.aws4.folder;" vertex="1" parent="1">
          <mxGeometry x="189.67" y="253" width="18.67" height="17" as="geometry" />
        </mxCell>
        <mxCell id="3EeU_wa0vUKyZ833sroe-34" value="&amp;lt;tenantid&amp;gt;" style="text;html=1;align=center;verticalAlign=middle;whiteSpace=wrap;rounded=0;" vertex="1" parent="1">
          <mxGeometry x="221.00000000000006" y="251.5" width="38.66" height="20" as="geometry" />
        </mxCell>
        <mxCell id="3EeU_wa0vUKyZ833sroe-43" value="" style="rounded=1;whiteSpace=wrap;html=1;" vertex="1" parent="1">
          <mxGeometry x="309" y="245" width="92" height="32" as="geometry" />
        </mxCell>
        <mxCell id="3EeU_wa0vUKyZ833sroe-44" value="" style="sketch=0;outlineConnect=0;fontColor=#232F3E;gradientColor=none;fillColor=#232F3D;strokeColor=none;dashed=0;verticalLabelPosition=bottom;verticalAlign=top;align=center;html=1;fontSize=12;fontStyle=0;aspect=fixed;pointerEvents=1;shape=mxgraph.aws4.folder;" vertex="1" parent="1">
          <mxGeometry x="316.66999999999996" y="252.5" width="18.67" height="17" as="geometry" />
        </mxCell>
        <mxCell id="3EeU_wa0vUKyZ833sroe-45" value="charging-status" style="text;html=1;align=center;verticalAlign=middle;whiteSpace=wrap;rounded=0;fontSize=11;" vertex="1" parent="1">
          <mxGeometry x="348.00000000000006" y="251" width="38.66" height="20" as="geometry" />
        </mxCell>
        <mxCell id="3EeU_wa0vUKyZ833sroe-93" style="edgeStyle=orthogonalEdgeStyle;rounded=0;orthogonalLoop=1;jettySize=auto;html=1;endArrow=none;endFill=0;startArrow=open;startFill=0;" edge="1" parent="1" source="3EeU_wa0vUKyZ833sroe-46">
          <mxGeometry relative="1" as="geometry">
            <mxPoint x="291.2748091603054" y="300" as="targetPoint" />
            <Array as="points">
              <mxPoint x="291" y="300" />
              <mxPoint x="291" y="300" />
            </Array>
          </mxGeometry>
        </mxCell>
        <mxCell id="3EeU_wa0vUKyZ833sroe-46" value="" style="rounded=1;whiteSpace=wrap;html=1;" vertex="1" parent="1">
          <mxGeometry x="309" y="284" width="92" height="32" as="geometry" />
        </mxCell>
        <mxCell id="3EeU_wa0vUKyZ833sroe-47" value="" style="sketch=0;outlineConnect=0;fontColor=#232F3E;gradientColor=none;fillColor=#232F3D;strokeColor=none;dashed=0;verticalLabelPosition=bottom;verticalAlign=top;align=center;html=1;fontSize=12;fontStyle=0;aspect=fixed;pointerEvents=1;shape=mxgraph.aws4.folder;" vertex="1" parent="1">
          <mxGeometry x="316.66999999999996" y="291.5" width="18.67" height="17" as="geometry" />
        </mxCell>
        <mxCell id="3EeU_wa0vUKyZ833sroe-48" value="defect-status" style="text;html=1;align=center;verticalAlign=middle;whiteSpace=wrap;rounded=0;fontSize=11;" vertex="1" parent="1">
          <mxGeometry x="348.00000000000006" y="290" width="38.66" height="20" as="geometry" />
        </mxCell>
        <mxCell id="3EeU_wa0vUKyZ833sroe-94" style="edgeStyle=orthogonalEdgeStyle;rounded=0;orthogonalLoop=1;jettySize=auto;html=1;endArrow=none;endFill=0;startArrow=open;startFill=0;" edge="1" parent="1" source="3EeU_wa0vUKyZ833sroe-49">
          <mxGeometry relative="1" as="geometry">
            <mxPoint x="292" y="339" as="targetPoint" />
            <Array as="points">
              <mxPoint x="291" y="339" />
            </Array>
          </mxGeometry>
        </mxCell>
        <mxCell id="3EeU_wa0vUKyZ833sroe-49" value="" style="rounded=1;whiteSpace=wrap;html=1;" vertex="1" parent="1">
          <mxGeometry x="309" y="323" width="92" height="32" as="geometry" />
        </mxCell>
        <mxCell id="3EeU_wa0vUKyZ833sroe-50" value="" style="sketch=0;outlineConnect=0;fontColor=#232F3E;gradientColor=none;fillColor=#232F3D;strokeColor=none;dashed=0;verticalLabelPosition=bottom;verticalAlign=top;align=center;html=1;fontSize=12;fontStyle=0;aspect=fixed;pointerEvents=1;shape=mxgraph.aws4.folder;" vertex="1" parent="1">
          <mxGeometry x="316.66999999999996" y="330.5" width="18.67" height="17" as="geometry" />
        </mxCell>
        <mxCell id="3EeU_wa0vUKyZ833sroe-51" value="parking-duration" style="text;html=1;align=center;verticalAlign=middle;whiteSpace=wrap;rounded=0;fontSize=11;" vertex="1" parent="1">
          <mxGeometry x="348.00000000000006" y="329" width="38.66" height="20" as="geometry" />
        </mxCell>
        <mxCell id="3EeU_wa0vUKyZ833sroe-95" style="edgeStyle=orthogonalEdgeStyle;rounded=0;orthogonalLoop=1;jettySize=auto;html=1;endArrow=none;endFill=0;startArrow=open;startFill=0;" edge="1" parent="1" source="3EeU_wa0vUKyZ833sroe-52">
          <mxGeometry relative="1" as="geometry">
            <mxPoint x="292" y="378" as="targetPoint" />
            <Array as="points">
              <mxPoint x="296" y="378" />
              <mxPoint x="296" y="378" />
            </Array>
          </mxGeometry>
        </mxCell>
        <mxCell id="3EeU_wa0vUKyZ833sroe-52" value="" style="rounded=1;whiteSpace=wrap;html=1;" vertex="1" parent="1">
          <mxGeometry x="309" y="362" width="92" height="32" as="geometry" />
        </mxCell>
        <mxCell id="3EeU_wa0vUKyZ833sroe-53" value="" style="sketch=0;outlineConnect=0;fontColor=#232F3E;gradientColor=none;fillColor=#232F3D;strokeColor=none;dashed=0;verticalLabelPosition=bottom;verticalAlign=top;align=center;html=1;fontSize=12;fontStyle=0;aspect=fixed;pointerEvents=1;shape=mxgraph.aws4.folder;" vertex="1" parent="1">
          <mxGeometry x="316.66999999999996" y="369.5" width="18.67" height="17" as="geometry" />
        </mxCell>
        <mxCell id="3EeU_wa0vUKyZ833sroe-54" value="parking-status" style="text;html=1;align=center;verticalAlign=middle;whiteSpace=wrap;rounded=0;fontSize=11;" vertex="1" parent="1">
          <mxGeometry x="348.00000000000006" y="368" width="38.66" height="20" as="geometry" />
        </mxCell>
        <mxCell id="3EeU_wa0vUKyZ833sroe-96" style="edgeStyle=orthogonalEdgeStyle;rounded=0;orthogonalLoop=1;jettySize=auto;html=1;endArrow=none;endFill=0;startArrow=open;startFill=0;" edge="1" parent="1" source="3EeU_wa0vUKyZ833sroe-55">
          <mxGeometry relative="1" as="geometry">
            <mxPoint x="291.8854961832061" y="417.00000000000006" as="targetPoint" />
            <Array as="points">
              <mxPoint x="292" y="418" />
            </Array>
          </mxGeometry>
        </mxCell>
        <mxCell id="3EeU_wa0vUKyZ833sroe-55" value="" style="rounded=1;whiteSpace=wrap;html=1;" vertex="1" parent="1">
          <mxGeometry x="309" y="401" width="92" height="32" as="geometry" />
        </mxCell>
        <mxCell id="3EeU_wa0vUKyZ833sroe-56" value="" style="sketch=0;outlineConnect=0;fontColor=#232F3E;gradientColor=none;fillColor=#232F3D;strokeColor=none;dashed=0;verticalLabelPosition=bottom;verticalAlign=top;align=center;html=1;fontSize=12;fontStyle=0;aspect=fixed;pointerEvents=1;shape=mxgraph.aws4.folder;" vertex="1" parent="1">
          <mxGeometry x="316.66999999999996" y="408.5" width="18.67" height="17" as="geometry" />
        </mxCell>
        <mxCell id="3EeU_wa0vUKyZ833sroe-57" value="power-consump." style="text;html=1;align=center;verticalAlign=middle;whiteSpace=wrap;rounded=0;fontSize=11;" vertex="1" parent="1">
          <mxGeometry x="348.00000000000006" y="407" width="38.66" height="20" as="geometry" />
        </mxCell>
        <mxCell id="3EeU_wa0vUKyZ833sroe-97" style="edgeStyle=orthogonalEdgeStyle;rounded=0;orthogonalLoop=1;jettySize=auto;html=1;endArrow=none;endFill=0;startArrow=open;startFill=0;" edge="1" parent="1" source="3EeU_wa0vUKyZ833sroe-58">
          <mxGeometry relative="1" as="geometry">
            <mxPoint x="292.03816793893134" y="456" as="targetPoint" />
            <Array as="points">
              <mxPoint x="292" y="457" />
            </Array>
          </mxGeometry>
        </mxCell>
        <mxCell id="3EeU_wa0vUKyZ833sroe-58" value="" style="rounded=1;whiteSpace=wrap;html=1;" vertex="1" parent="1">
          <mxGeometry x="309" y="440" width="92" height="32" as="geometry" />
        </mxCell>
        <mxCell id="3EeU_wa0vUKyZ833sroe-59" value="" style="sketch=0;outlineConnect=0;fontColor=#232F3E;gradientColor=none;fillColor=#232F3D;strokeColor=none;dashed=0;verticalLabelPosition=bottom;verticalAlign=top;align=center;html=1;fontSize=12;fontStyle=0;aspect=fixed;pointerEvents=1;shape=mxgraph.aws4.folder;" vertex="1" parent="1">
          <mxGeometry x="316.66999999999996" y="447.5" width="18.67" height="17" as="geometry" />
        </mxCell>
        <mxCell id="3EeU_wa0vUKyZ833sroe-60" value="requests" style="text;html=1;align=center;verticalAlign=middle;whiteSpace=wrap;rounded=0;fontSize=11;" vertex="1" parent="1">
          <mxGeometry x="348.00000000000006" y="446" width="38.66" height="20" as="geometry" />
        </mxCell>
        <mxCell id="3EeU_wa0vUKyZ833sroe-61" value="" style="rounded=1;whiteSpace=wrap;html=1;" vertex="1" parent="1">
          <mxGeometry x="309" y="479" width="92" height="32" as="geometry" />
        </mxCell>
        <mxCell id="3EeU_wa0vUKyZ833sroe-62" value="" style="sketch=0;outlineConnect=0;fontColor=#232F3E;gradientColor=none;fillColor=#232F3D;strokeColor=none;dashed=0;verticalLabelPosition=bottom;verticalAlign=top;align=center;html=1;fontSize=12;fontStyle=0;aspect=fixed;pointerEvents=1;shape=mxgraph.aws4.folder;" vertex="1" parent="1">
          <mxGeometry x="316.66999999999996" y="486.5" width="18.67" height="17" as="geometry" />
        </mxCell>
        <mxCell id="3EeU_wa0vUKyZ833sroe-63" value="turnover" style="text;html=1;align=center;verticalAlign=middle;whiteSpace=wrap;rounded=0;fontSize=11;" vertex="1" parent="1">
          <mxGeometry x="348.00000000000006" y="485" width="38.66" height="20" as="geometry" />
        </mxCell>
        <mxCell id="3EeU_wa0vUKyZ833sroe-64" value="" style="shape=note;whiteSpace=wrap;html=1;backgroundOutline=1;darkOpacity=0.05;size=6;" vertex="1" parent="1">
          <mxGeometry x="443.8" y="253" width="19.2" height="24" as="geometry" />
        </mxCell>
        <mxCell id="3EeU_wa0vUKyZ833sroe-65" value="" style="shape=note;whiteSpace=wrap;html=1;backgroundOutline=1;darkOpacity=0.05;size=6;" vertex="1" parent="1">
          <mxGeometry x="439.8" y="249.5" width="19.2" height="24" as="geometry" />
        </mxCell>
        <mxCell id="3EeU_wa0vUKyZ833sroe-66" value="" style="shape=note;whiteSpace=wrap;html=1;backgroundOutline=1;darkOpacity=0.05;size=6;" vertex="1" parent="1">
          <mxGeometry x="436.2" y="246" width="19.2" height="24" as="geometry" />
        </mxCell>
        <mxCell id="3EeU_wa0vUKyZ833sroe-67" value="" style="shape=note;whiteSpace=wrap;html=1;backgroundOutline=1;darkOpacity=0.05;size=6;" vertex="1" parent="1">
          <mxGeometry x="443.8" y="291" width="19.2" height="24" as="geometry" />
        </mxCell>
        <mxCell id="3EeU_wa0vUKyZ833sroe-68" value="" style="shape=note;whiteSpace=wrap;html=1;backgroundOutline=1;darkOpacity=0.05;size=6;" vertex="1" parent="1">
          <mxGeometry x="439.8" y="287.5" width="19.2" height="24" as="geometry" />
        </mxCell>
        <mxCell id="3EeU_wa0vUKyZ833sroe-69" value="" style="shape=note;whiteSpace=wrap;html=1;backgroundOutline=1;darkOpacity=0.05;size=6;" vertex="1" parent="1">
          <mxGeometry x="436.2" y="284" width="19.2" height="24" as="geometry" />
        </mxCell>
        <mxCell id="3EeU_wa0vUKyZ833sroe-70" value="" style="shape=note;whiteSpace=wrap;html=1;backgroundOutline=1;darkOpacity=0.05;size=6;" vertex="1" parent="1">
          <mxGeometry x="443.8" y="330" width="19.2" height="24" as="geometry" />
        </mxCell>
        <mxCell id="3EeU_wa0vUKyZ833sroe-71" value="" style="shape=note;whiteSpace=wrap;html=1;backgroundOutline=1;darkOpacity=0.05;size=6;" vertex="1" parent="1">
          <mxGeometry x="439.8" y="326.5" width="19.2" height="24" as="geometry" />
        </mxCell>
        <mxCell id="3EeU_wa0vUKyZ833sroe-72" value="" style="shape=note;whiteSpace=wrap;html=1;backgroundOutline=1;darkOpacity=0.05;size=6;" vertex="1" parent="1">
          <mxGeometry x="436.2" y="323" width="19.2" height="24" as="geometry" />
        </mxCell>
        <mxCell id="3EeU_wa0vUKyZ833sroe-73" value="" style="shape=note;whiteSpace=wrap;html=1;backgroundOutline=1;darkOpacity=0.05;size=6;" vertex="1" parent="1">
          <mxGeometry x="443.8" y="369.5" width="19.2" height="24" as="geometry" />
        </mxCell>
        <mxCell id="3EeU_wa0vUKyZ833sroe-74" value="" style="shape=note;whiteSpace=wrap;html=1;backgroundOutline=1;darkOpacity=0.05;size=6;" vertex="1" parent="1">
          <mxGeometry x="439.8" y="366" width="19.2" height="24" as="geometry" />
        </mxCell>
        <mxCell id="3EeU_wa0vUKyZ833sroe-75" value="" style="shape=note;whiteSpace=wrap;html=1;backgroundOutline=1;darkOpacity=0.05;size=6;" vertex="1" parent="1">
          <mxGeometry x="436.2" y="362.5" width="19.2" height="24" as="geometry" />
        </mxCell>
        <mxCell id="3EeU_wa0vUKyZ833sroe-76" value="" style="shape=note;whiteSpace=wrap;html=1;backgroundOutline=1;darkOpacity=0.05;size=6;" vertex="1" parent="1">
          <mxGeometry x="443.8" y="408" width="19.2" height="24" as="geometry" />
        </mxCell>
        <mxCell id="3EeU_wa0vUKyZ833sroe-77" value="" style="shape=note;whiteSpace=wrap;html=1;backgroundOutline=1;darkOpacity=0.05;size=6;" vertex="1" parent="1">
          <mxGeometry x="439.8" y="404.5" width="19.2" height="24" as="geometry" />
        </mxCell>
        <mxCell id="3EeU_wa0vUKyZ833sroe-78" value="" style="shape=note;whiteSpace=wrap;html=1;backgroundOutline=1;darkOpacity=0.05;size=6;" vertex="1" parent="1">
          <mxGeometry x="436.2" y="401" width="19.2" height="24" as="geometry" />
        </mxCell>
        <mxCell id="3EeU_wa0vUKyZ833sroe-79" value="" style="shape=note;whiteSpace=wrap;html=1;backgroundOutline=1;darkOpacity=0.05;size=6;" vertex="1" parent="1">
          <mxGeometry x="443.8" y="447" width="19.2" height="24" as="geometry" />
        </mxCell>
        <mxCell id="3EeU_wa0vUKyZ833sroe-80" value="" style="shape=note;whiteSpace=wrap;html=1;backgroundOutline=1;darkOpacity=0.05;size=6;" vertex="1" parent="1">
          <mxGeometry x="439.8" y="443.5" width="19.2" height="24" as="geometry" />
        </mxCell>
        <mxCell id="3EeU_wa0vUKyZ833sroe-81" value="" style="shape=note;whiteSpace=wrap;html=1;backgroundOutline=1;darkOpacity=0.05;size=6;" vertex="1" parent="1">
          <mxGeometry x="436.2" y="440" width="19.2" height="24" as="geometry" />
        </mxCell>
        <mxCell id="3EeU_wa0vUKyZ833sroe-82" value="" style="shape=note;whiteSpace=wrap;html=1;backgroundOutline=1;darkOpacity=0.05;size=6;" vertex="1" parent="1">
          <mxGeometry x="443.8" y="486" width="19.2" height="24" as="geometry" />
        </mxCell>
        <mxCell id="3EeU_wa0vUKyZ833sroe-83" value="" style="shape=note;whiteSpace=wrap;html=1;backgroundOutline=1;darkOpacity=0.05;size=6;" vertex="1" parent="1">
          <mxGeometry x="439.8" y="482.5" width="19.2" height="24" as="geometry" />
        </mxCell>
        <mxCell id="3EeU_wa0vUKyZ833sroe-84" value="" style="shape=note;whiteSpace=wrap;html=1;backgroundOutline=1;darkOpacity=0.05;size=6;" vertex="1" parent="1">
          <mxGeometry x="436.2" y="479" width="19.2" height="24" as="geometry" />
        </mxCell>
        <mxCell id="3EeU_wa0vUKyZ833sroe-92" value="" style="endArrow=open;html=1;rounded=0;entryX=0;entryY=0.5;entryDx=0;entryDy=0;endFill=0;" edge="1" parent="1" target="3EeU_wa0vUKyZ833sroe-61">
          <mxGeometry width="50" height="50" relative="1" as="geometry">
            <mxPoint x="291" y="261" as="sourcePoint" />
            <mxPoint x="423" y="343" as="targetPoint" />
            <Array as="points">
              <mxPoint x="292" y="495" />
            </Array>
          </mxGeometry>
        </mxCell>
        <mxCell id="3EeU_wa0vUKyZ833sroe-98" style="edgeStyle=orthogonalEdgeStyle;rounded=0;orthogonalLoop=1;jettySize=auto;html=1;exitX=1;exitY=0.5;exitDx=0;exitDy=0;entryX=-0.001;entryY=0.638;entryDx=0;entryDy=0;entryPerimeter=0;endArrow=open;endFill=0;" edge="1" parent="1" target="3EeU_wa0vUKyZ833sroe-66">
          <mxGeometry relative="1" as="geometry">
            <mxPoint x="401" y="260.90999999999997" as="sourcePoint" />
            <mxPoint x="426" y="260.90999999999997" as="targetPoint" />
          </mxGeometry>
        </mxCell>
        <mxCell id="3EeU_wa0vUKyZ833sroe-99" style="edgeStyle=orthogonalEdgeStyle;rounded=0;orthogonalLoop=1;jettySize=auto;html=1;exitX=1;exitY=0.5;exitDx=0;exitDy=0;entryX=-0.001;entryY=0.638;entryDx=0;entryDy=0;entryPerimeter=0;endArrow=open;endFill=0;" edge="1" parent="1">
          <mxGeometry relative="1" as="geometry">
            <mxPoint x="401.2" y="299.43" as="sourcePoint" />
            <mxPoint x="436.2" y="299.52" as="targetPoint" />
          </mxGeometry>
        </mxCell>
        <mxCell id="3EeU_wa0vUKyZ833sroe-100" style="edgeStyle=orthogonalEdgeStyle;rounded=0;orthogonalLoop=1;jettySize=auto;html=1;exitX=1;exitY=0.5;exitDx=0;exitDy=0;entryX=-0.001;entryY=0.638;entryDx=0;entryDy=0;entryPerimeter=0;endArrow=open;endFill=0;" edge="1" parent="1">
          <mxGeometry relative="1" as="geometry">
            <mxPoint x="401.2" y="338.45" as="sourcePoint" />
            <mxPoint x="436.2" y="338.53999999999996" as="targetPoint" />
          </mxGeometry>
        </mxCell>
        <mxCell id="3EeU_wa0vUKyZ833sroe-101" style="edgeStyle=orthogonalEdgeStyle;rounded=0;orthogonalLoop=1;jettySize=auto;html=1;exitX=1;exitY=0.5;exitDx=0;exitDy=0;entryX=-0.001;entryY=0.638;entryDx=0;entryDy=0;entryPerimeter=0;endArrow=open;endFill=0;" edge="1" parent="1">
          <mxGeometry relative="1" as="geometry">
            <mxPoint x="401" y="377.90999999999997" as="sourcePoint" />
            <mxPoint x="436" y="377.99999999999994" as="targetPoint" />
          </mxGeometry>
        </mxCell>
        <mxCell id="3EeU_wa0vUKyZ833sroe-102" style="edgeStyle=orthogonalEdgeStyle;rounded=0;orthogonalLoop=1;jettySize=auto;html=1;exitX=1;exitY=0.5;exitDx=0;exitDy=0;entryX=-0.001;entryY=0.638;entryDx=0;entryDy=0;entryPerimeter=0;endArrow=open;endFill=0;" edge="1" parent="1">
          <mxGeometry relative="1" as="geometry">
            <mxPoint x="401.2" y="416.42999999999995" as="sourcePoint" />
            <mxPoint x="436.2" y="416.5199999999999" as="targetPoint" />
          </mxGeometry>
        </mxCell>
        <mxCell id="3EeU_wa0vUKyZ833sroe-103" style="edgeStyle=orthogonalEdgeStyle;rounded=0;orthogonalLoop=1;jettySize=auto;html=1;exitX=1;exitY=0.5;exitDx=0;exitDy=0;entryX=-0.001;entryY=0.638;entryDx=0;entryDy=0;entryPerimeter=0;endArrow=open;endFill=0;" edge="1" parent="1">
          <mxGeometry relative="1" as="geometry">
            <mxPoint x="401.2" y="455.44999999999993" as="sourcePoint" />
            <mxPoint x="436.2" y="455.5399999999999" as="targetPoint" />
          </mxGeometry>
        </mxCell>
        <mxCell id="3EeU_wa0vUKyZ833sroe-104" style="edgeStyle=orthogonalEdgeStyle;rounded=0;orthogonalLoop=1;jettySize=auto;html=1;exitX=1;exitY=0.5;exitDx=0;exitDy=0;entryX=-0.001;entryY=0.638;entryDx=0;entryDy=0;entryPerimeter=0;endArrow=open;endFill=0;" edge="1" parent="1">
          <mxGeometry relative="1" as="geometry">
            <mxPoint x="401.2" y="494.4699999999999" as="sourcePoint" />
            <mxPoint x="436.2" y="494.5599999999999" as="targetPoint" />
          </mxGeometry>
        </mxCell>
        <mxCell id="3EeU_wa0vUKyZ833sroe-105" value="" style="rounded=0;whiteSpace=wrap;html=1;fillColor=#f5f5f5;fontColor=#333333;strokeColor=#666666;" vertex="1" parent="1">
          <mxGeometry x="508" y="117" width="194" height="158" as="geometry" />
        </mxCell>
        <mxCell id="3EeU_wa0vUKyZ833sroe-106" value="parking-ma-&amp;lt;tenantid&amp;gt;" style="text;html=1;align=center;verticalAlign=middle;whiteSpace=wrap;rounded=0;" vertex="1" parent="1">
          <mxGeometry x="529" y="125" width="145" height="20" as="geometry" />
        </mxCell>
        <mxCell id="3EeU_wa0vUKyZ833sroe-108" style="edgeStyle=orthogonalEdgeStyle;rounded=0;orthogonalLoop=1;jettySize=auto;html=1;entryX=-0.021;entryY=0.646;entryDx=0;entryDy=0;entryPerimeter=0;endArrow=open;endFill=0;" edge="1" parent="1" target="3EeU_wa0vUKyZ833sroe-114">
          <mxGeometry relative="1" as="geometry">
            <mxPoint x="621" y="167.5217391304348" as="sourcePoint" />
          </mxGeometry>
        </mxCell>
        <mxCell id="3EeU_wa0vUKyZ833sroe-109" value="" style="rounded=1;whiteSpace=wrap;html=1;" vertex="1" parent="1">
          <mxGeometry x="533" y="151.5" width="96" height="32" as="geometry" />
        </mxCell>
        <mxCell id="3EeU_wa0vUKyZ833sroe-110" value="" style="sketch=0;outlineConnect=0;fontColor=#232F3E;gradientColor=none;fillColor=#232F3D;strokeColor=none;dashed=0;verticalLabelPosition=bottom;verticalAlign=top;align=center;html=1;fontSize=12;fontStyle=0;aspect=fixed;pointerEvents=1;shape=mxgraph.aws4.folder;" vertex="1" parent="1">
          <mxGeometry x="540.67" y="159" width="18.67" height="17" as="geometry" />
        </mxCell>
        <mxCell id="3EeU_wa0vUKyZ833sroe-111" value="charging-sessions" style="text;html=1;align=center;verticalAlign=middle;whiteSpace=wrap;rounded=0;fontSize=11;" vertex="1" parent="1">
          <mxGeometry x="561.34" y="157.5" width="63.66" height="20" as="geometry" />
        </mxCell>
        <mxCell id="3EeU_wa0vUKyZ833sroe-112" value="" style="shape=note;whiteSpace=wrap;html=1;backgroundOutline=1;darkOpacity=0.05;size=6;" vertex="1" parent="1">
          <mxGeometry x="667.8" y="159.5" width="19.2" height="24" as="geometry" />
        </mxCell>
        <mxCell id="3EeU_wa0vUKyZ833sroe-113" value="" style="shape=note;whiteSpace=wrap;html=1;backgroundOutline=1;darkOpacity=0.05;size=6;" vertex="1" parent="1">
          <mxGeometry x="663.8" y="156" width="19.2" height="24" as="geometry" />
        </mxCell>
        <mxCell id="3EeU_wa0vUKyZ833sroe-114" value="" style="shape=note;whiteSpace=wrap;html=1;backgroundOutline=1;darkOpacity=0.05;size=6;" vertex="1" parent="1">
          <mxGeometry x="660.2" y="152.5" width="19.2" height="24" as="geometry" />
        </mxCell>
        <mxCell id="3EeU_wa0vUKyZ833sroe-115" value="" style="rounded=1;whiteSpace=wrap;html=1;" vertex="1" parent="1">
          <mxGeometry x="533" y="191" width="97" height="32" as="geometry" />
        </mxCell>
        <mxCell id="3EeU_wa0vUKyZ833sroe-116" value="" style="sketch=0;outlineConnect=0;fontColor=#232F3E;gradientColor=none;fillColor=#232F3D;strokeColor=none;dashed=0;verticalLabelPosition=bottom;verticalAlign=top;align=center;html=1;fontSize=12;fontStyle=0;aspect=fixed;pointerEvents=1;shape=mxgraph.aws4.folder;" vertex="1" parent="1">
          <mxGeometry x="540.67" y="198.5" width="18.67" height="17" as="geometry" />
        </mxCell>
        <mxCell id="3EeU_wa0vUKyZ833sroe-117" value="garages" style="text;html=1;align=center;verticalAlign=middle;whiteSpace=wrap;rounded=0;fontSize=11;" vertex="1" parent="1">
          <mxGeometry x="561.34" y="197" width="58.66" height="20" as="geometry" />
        </mxCell>
        <mxCell id="3EeU_wa0vUKyZ833sroe-118" value="" style="rounded=1;whiteSpace=wrap;html=1;" vertex="1" parent="1">
          <mxGeometry x="533" y="230" width="98" height="32" as="geometry" />
        </mxCell>
        <mxCell id="3EeU_wa0vUKyZ833sroe-119" value="" style="sketch=0;outlineConnect=0;fontColor=#232F3E;gradientColor=none;fillColor=#232F3D;strokeColor=none;dashed=0;verticalLabelPosition=bottom;verticalAlign=top;align=center;html=1;fontSize=12;fontStyle=0;aspect=fixed;pointerEvents=1;shape=mxgraph.aws4.folder;" vertex="1" parent="1">
          <mxGeometry x="540.67" y="237.5" width="18.67" height="17" as="geometry" />
        </mxCell>
        <mxCell id="3EeU_wa0vUKyZ833sroe-120" value="tickets" style="text;html=1;align=center;verticalAlign=middle;whiteSpace=wrap;rounded=0;fontSize=11;" vertex="1" parent="1">
          <mxGeometry x="561.34" y="236" width="52.66" height="20" as="geometry" />
        </mxCell>
        <mxCell id="3EeU_wa0vUKyZ833sroe-121" style="edgeStyle=orthogonalEdgeStyle;rounded=0;orthogonalLoop=1;jettySize=auto;html=1;entryX=-0.021;entryY=0.646;entryDx=0;entryDy=0;entryPerimeter=0;endArrow=open;endFill=0;" edge="1" parent="1" target="3EeU_wa0vUKyZ833sroe-124">
          <mxGeometry relative="1" as="geometry">
            <mxPoint x="631.5" y="207" as="sourcePoint" />
          </mxGeometry>
        </mxCell>
        <mxCell id="3EeU_wa0vUKyZ833sroe-122" value="" style="shape=note;whiteSpace=wrap;html=1;backgroundOutline=1;darkOpacity=0.05;size=6;" vertex="1" parent="1">
          <mxGeometry x="668.3" y="198.5" width="19.2" height="24" as="geometry" />
        </mxCell>
        <mxCell id="3EeU_wa0vUKyZ833sroe-123" value="" style="shape=note;whiteSpace=wrap;html=1;backgroundOutline=1;darkOpacity=0.05;size=6;" vertex="1" parent="1">
          <mxGeometry x="664.3" y="195" width="19.2" height="24" as="geometry" />
        </mxCell>
        <mxCell id="3EeU_wa0vUKyZ833sroe-124" value="" style="shape=note;whiteSpace=wrap;html=1;backgroundOutline=1;darkOpacity=0.05;size=6;" vertex="1" parent="1">
          <mxGeometry x="660.7" y="191.5" width="19.2" height="24" as="geometry" />
        </mxCell>
        <mxCell id="3EeU_wa0vUKyZ833sroe-125" style="edgeStyle=orthogonalEdgeStyle;rounded=0;orthogonalLoop=1;jettySize=auto;html=1;entryX=-0.021;entryY=0.646;entryDx=0;entryDy=0;entryPerimeter=0;endArrow=open;endFill=0;" edge="1" parent="1" target="3EeU_wa0vUKyZ833sroe-128">
          <mxGeometry relative="1" as="geometry">
            <mxPoint x="631.5" y="246" as="sourcePoint" />
          </mxGeometry>
        </mxCell>
        <mxCell id="3EeU_wa0vUKyZ833sroe-126" value="" style="shape=note;whiteSpace=wrap;html=1;backgroundOutline=1;darkOpacity=0.05;size=6;" vertex="1" parent="1">
          <mxGeometry x="668.3" y="237.5" width="19.2" height="24" as="geometry" />
        </mxCell>
        <mxCell id="3EeU_wa0vUKyZ833sroe-127" value="" style="shape=note;whiteSpace=wrap;html=1;backgroundOutline=1;darkOpacity=0.05;size=6;" vertex="1" parent="1">
          <mxGeometry x="664.3" y="234" width="19.2" height="24" as="geometry" />
        </mxCell>
        <mxCell id="3EeU_wa0vUKyZ833sroe-128" value="" style="shape=note;whiteSpace=wrap;html=1;backgroundOutline=1;darkOpacity=0.05;size=6;" vertex="1" parent="1">
          <mxGeometry x="660.7" y="230.5" width="19.2" height="24" as="geometry" />
        </mxCell>
        <mxCell id="3EeU_wa0vUKyZ833sroe-129" value="" style="rounded=0;whiteSpace=wrap;html=1;fillColor=#f5f5f5;fontColor=#333333;strokeColor=#666666;" vertex="1" parent="1">
          <mxGeometry x="508" y="304" width="189" height="121" as="geometry" />
        </mxCell>
        <mxCell id="3EeU_wa0vUKyZ833sroe-130" value="prop-ma-&amp;lt;tenantid&amp;gt;" style="text;html=1;align=center;verticalAlign=middle;whiteSpace=wrap;rounded=0;" vertex="1" parent="1">
          <mxGeometry x="529" y="312" width="132" height="20" as="geometry" />
        </mxCell>
        <mxCell id="3EeU_wa0vUKyZ833sroe-132" style="edgeStyle=orthogonalEdgeStyle;rounded=0;orthogonalLoop=1;jettySize=auto;html=1;entryX=-0.021;entryY=0.646;entryDx=0;entryDy=0;entryPerimeter=0;endArrow=open;endFill=0;" edge="1" parent="1" source="3EeU_wa0vUKyZ833sroe-133" target="3EeU_wa0vUKyZ833sroe-138">
          <mxGeometry relative="1" as="geometry">
            <mxPoint x="652.2" y="355.0000000000001" as="sourcePoint" />
            <Array as="points">
              <mxPoint x="620" y="354" />
              <mxPoint x="620" y="354" />
            </Array>
          </mxGeometry>
        </mxCell>
        <mxCell id="3EeU_wa0vUKyZ833sroe-133" value="" style="rounded=1;whiteSpace=wrap;html=1;" vertex="1" parent="1">
          <mxGeometry x="533" y="338.5" width="87" height="32" as="geometry" />
        </mxCell>
        <mxCell id="3EeU_wa0vUKyZ833sroe-134" value="" style="sketch=0;outlineConnect=0;fontColor=#232F3E;gradientColor=none;fillColor=#232F3D;strokeColor=none;dashed=0;verticalLabelPosition=bottom;verticalAlign=top;align=center;html=1;fontSize=12;fontStyle=0;aspect=fixed;pointerEvents=1;shape=mxgraph.aws4.folder;" vertex="1" parent="1">
          <mxGeometry x="540.67" y="346" width="18.67" height="17" as="geometry" />
        </mxCell>
        <mxCell id="3EeU_wa0vUKyZ833sroe-135" value="defects" style="text;html=1;align=center;verticalAlign=middle;whiteSpace=wrap;rounded=0;fontSize=11;" vertex="1" parent="1">
          <mxGeometry x="561.34" y="344.5" width="48.66" height="20" as="geometry" />
        </mxCell>
        <mxCell id="3EeU_wa0vUKyZ833sroe-136" value="" style="shape=note;whiteSpace=wrap;html=1;backgroundOutline=1;darkOpacity=0.05;size=6;" vertex="1" parent="1">
          <mxGeometry x="661.3" y="345.5" width="19.2" height="24" as="geometry" />
        </mxCell>
        <mxCell id="3EeU_wa0vUKyZ833sroe-137" value="" style="shape=note;whiteSpace=wrap;html=1;backgroundOutline=1;darkOpacity=0.05;size=6;" vertex="1" parent="1">
          <mxGeometry x="657.3" y="342" width="19.2" height="24" as="geometry" />
        </mxCell>
        <mxCell id="3EeU_wa0vUKyZ833sroe-138" value="" style="shape=note;whiteSpace=wrap;html=1;backgroundOutline=1;darkOpacity=0.05;size=6;" vertex="1" parent="1">
          <mxGeometry x="653.7" y="338.5" width="19.2" height="24" as="geometry" />
        </mxCell>
        <mxCell id="3EeU_wa0vUKyZ833sroe-139" value="" style="rounded=1;whiteSpace=wrap;html=1;" vertex="1" parent="1">
          <mxGeometry x="533" y="378" width="88" height="32" as="geometry" />
        </mxCell>
        <mxCell id="3EeU_wa0vUKyZ833sroe-140" value="" style="sketch=0;outlineConnect=0;fontColor=#232F3E;gradientColor=none;fillColor=#232F3D;strokeColor=none;dashed=0;verticalLabelPosition=bottom;verticalAlign=top;align=center;html=1;fontSize=12;fontStyle=0;aspect=fixed;pointerEvents=1;shape=mxgraph.aws4.folder;" vertex="1" parent="1">
          <mxGeometry x="540.67" y="385.5" width="18.67" height="17" as="geometry" />
        </mxCell>
        <mxCell id="3EeU_wa0vUKyZ833sroe-141" value="garages" style="text;html=1;align=center;verticalAlign=middle;whiteSpace=wrap;rounded=0;fontSize=11;" vertex="1" parent="1">
          <mxGeometry x="561.34" y="384" width="54.66" height="20" as="geometry" />
        </mxCell>
        <mxCell id="3EeU_wa0vUKyZ833sroe-145" style="edgeStyle=orthogonalEdgeStyle;rounded=0;orthogonalLoop=1;jettySize=auto;html=1;entryX=-0.021;entryY=0.646;entryDx=0;entryDy=0;entryPerimeter=0;endArrow=open;endFill=0;" edge="1" parent="1" target="3EeU_wa0vUKyZ833sroe-148" source="3EeU_wa0vUKyZ833sroe-139">
          <mxGeometry relative="1" as="geometry">
            <mxPoint x="625" y="394" as="sourcePoint" />
          </mxGeometry>
        </mxCell>
        <mxCell id="3EeU_wa0vUKyZ833sroe-146" value="" style="shape=note;whiteSpace=wrap;html=1;backgroundOutline=1;darkOpacity=0.05;size=6;" vertex="1" parent="1">
          <mxGeometry x="661.8" y="385.5" width="19.2" height="24" as="geometry" />
        </mxCell>
        <mxCell id="3EeU_wa0vUKyZ833sroe-147" value="" style="shape=note;whiteSpace=wrap;html=1;backgroundOutline=1;darkOpacity=0.05;size=6;" vertex="1" parent="1">
          <mxGeometry x="657.8" y="382" width="19.2" height="24" as="geometry" />
        </mxCell>
        <mxCell id="3EeU_wa0vUKyZ833sroe-148" value="" style="shape=note;whiteSpace=wrap;html=1;backgroundOutline=1;darkOpacity=0.05;size=6;" vertex="1" parent="1">
          <mxGeometry x="654.2" y="378.5" width="19.2" height="24" as="geometry" />
        </mxCell>
        <mxCell id="3EeU_wa0vUKyZ833sroe-157" value="Solution wide" style="text;html=1;align=left;verticalAlign=middle;whiteSpace=wrap;rounded=0;fontStyle=1" vertex="1" parent="1">
          <mxGeometry x="157" y="74" width="96" height="30" as="geometry" />
        </mxCell>
        <mxCell id="3EeU_wa0vUKyZ833sroe-158" value="Tenant specific" style="text;html=1;align=left;verticalAlign=middle;whiteSpace=wrap;rounded=0;fontStyle=1" vertex="1" parent="1">
          <mxGeometry x="508" y="74" width="136" height="30" as="geometry" />
        </mxCell>
        <mxCell id="3EeU_wa0vUKyZ833sroe-166" value="" style="editableCssRules=.*;html=1;shape=image;verticalLabelPosition=bottom;labelBackgroundColor=#ffffff;verticalAlign=top;aspect=fixed;imageAspect=0;image=data:image/svg+xml,PHN2ZyB4bWxucz0iaHR0cDovL3d3dy53My5vcmcvMjAwMC9zdmciIHhtbG5zOnY9Imh0dHBzOi8vdmVjdGEuaW8vbmFubyIgd2lkdGg9IjMyMy45MDU2MTAzOTg2NzUxNSIgaGVpZ2h0PSIzNzYuNDIyMjk0OTYzNjg0MDciIHZpZXdCb3g9Ii0wLjA5NzAwMDAwMjg2MTAyMjk1IDAuMjg3OTk5OTg3NjAyMjMzOSA4NS42OTk5OTY5NDgyNDIxOSA5OS41OTUwMDEyMjA3MDMxMiI+JiN4YTs8c3R5bGUgdHlwZT0idGV4dC9jc3MiPiYjeGE7CS5zdDB7ZmlsbDojYWVjYmZhO30mI3hhOwkuc3Qxe2ZpbGw6IzY2OWRmNjt9JiN4YTsJLnN0MntmaWxsOiM0Mjg1ZjQ7fSYjeGE7PC9zdHlsZT4mI3hhOwk8cGF0aCBjbGFzcz0ic3QwIiBkPSJNLS4wOTcgNzUuODE1VjU1Ljg3NGw0Mi44NS0yMC4xODN2MTkuMDd6bTAtMzUuNDAzVjIwLjQ3MUw0Mi43NTMuMjg4djE5LjA3eiIvPiYjeGE7CTxwYXRoIGNsYXNzPSJzdDEiIGQ9Ik04NS42MDMgNzUuODE1VjU1Ljg3NGwtNDIuODUtMjAuMTgzdjE5LjA3em0wLTM1LjQwM1YyMC40NzFMNDIuNzUzLjI4OHYxOS4wN3oiLz4mI3hhOwk8cGF0aCBjbGFzcz0ic3QyIiBkPSJNNDIuNzUzIDgwLjMxNGwxNi4yMTctNy41MjUgMjEuMDg0IDkuNzE3LTM3LjMwMSAxNy4zNzd6Ii8+JiN4YTs8L3N2Zz4=;" vertex="1" parent="1">
          <mxGeometry x="166" y="124.99" width="17" height="20.01" as="geometry" />
        </mxCell>
        <mxCell id="3EeU_wa0vUKyZ833sroe-167" value="" style="editableCssRules=.*;html=1;shape=image;verticalLabelPosition=bottom;labelBackgroundColor=#ffffff;verticalAlign=top;aspect=fixed;imageAspect=0;image=data:image/svg+xml,PHN2ZyB4bWxucz0iaHR0cDovL3d3dy53My5vcmcvMjAwMC9zdmciIHhtbG5zOnY9Imh0dHBzOi8vdmVjdGEuaW8vbmFubyIgd2lkdGg9IjMyMy45MDU2MTAzOTg2NzUxNSIgaGVpZ2h0PSIzNzYuNDIyMjk0OTYzNjg0MDciIHZpZXdCb3g9Ii0wLjA5NzAwMDAwMjg2MTAyMjk1IDAuMjg3OTk5OTg3NjAyMjMzOSA4NS42OTk5OTY5NDgyNDIxOSA5OS41OTUwMDEyMjA3MDMxMiI+JiN4YTs8c3R5bGUgdHlwZT0idGV4dC9jc3MiPiYjeGE7CS5zdDB7ZmlsbDojYWVjYmZhO30mI3hhOwkuc3Qxe2ZpbGw6IzY2OWRmNjt9JiN4YTsJLnN0MntmaWxsOiM0Mjg1ZjQ7fSYjeGE7PC9zdHlsZT4mI3hhOwk8cGF0aCBjbGFzcz0ic3QwIiBkPSJNLS4wOTcgNzUuODE1VjU1Ljg3NGw0Mi44NS0yMC4xODN2MTkuMDd6bTAtMzUuNDAzVjIwLjQ3MUw0Mi43NTMuMjg4djE5LjA3eiIvPiYjeGE7CTxwYXRoIGNsYXNzPSJzdDEiIGQ9Ik04NS42MDMgNzUuODE1VjU1Ljg3NGwtNDIuODUtMjAuMTgzdjE5LjA3em0wLTM1LjQwM1YyMC40NzFMNDIuNzUzLjI4OHYxOS4wN3oiLz4mI3hhOwk8cGF0aCBjbGFzcz0ic3QyIiBkPSJNNDIuNzUzIDgwLjMxNGwxNi4yMTctNy41MjUgMjEuMDg0IDkuNzE3LTM3LjMwMSAxNy4zNzd6Ii8+JiN4YTs8L3N2Zz4=;" vertex="1" parent="1">
          <mxGeometry x="165" y="217.49" width="17" height="20.01" as="geometry" />
        </mxCell>
        <mxCell id="3EeU_wa0vUKyZ833sroe-168" value="" style="editableCssRules=.*;html=1;shape=image;verticalLabelPosition=bottom;labelBackgroundColor=#ffffff;verticalAlign=top;aspect=fixed;imageAspect=0;image=data:image/svg+xml,PHN2ZyB4bWxucz0iaHR0cDovL3d3dy53My5vcmcvMjAwMC9zdmciIHhtbG5zOnY9Imh0dHBzOi8vdmVjdGEuaW8vbmFubyIgd2lkdGg9IjMyMy45MDU2MTAzOTg2NzUxNSIgaGVpZ2h0PSIzNzYuNDIyMjk0OTYzNjg0MDciIHZpZXdCb3g9Ii0wLjA5NzAwMDAwMjg2MTAyMjk1IDAuMjg3OTk5OTg3NjAyMjMzOSA4NS42OTk5OTY5NDgyNDIxOSA5OS41OTUwMDEyMjA3MDMxMiI+JiN4YTs8c3R5bGUgdHlwZT0idGV4dC9jc3MiPiYjeGE7CS5zdDB7ZmlsbDojYWVjYmZhO30mI3hhOwkuc3Qxe2ZpbGw6IzY2OWRmNjt9JiN4YTsJLnN0MntmaWxsOiM0Mjg1ZjQ7fSYjeGE7PC9zdHlsZT4mI3hhOwk8cGF0aCBjbGFzcz0ic3QwIiBkPSJNLS4wOTcgNzUuODE1VjU1Ljg3NGw0Mi44NS0yMC4xODN2MTkuMDd6bTAtMzUuNDAzVjIwLjQ3MUw0Mi43NTMuMjg4djE5LjA3eiIvPiYjeGE7CTxwYXRoIGNsYXNzPSJzdDEiIGQ9Ik04NS42MDMgNzUuODE1VjU1Ljg3NGwtNDIuODUtMjAuMTgzdjE5LjA3em0wLTM1LjQwM1YyMC40NzFMNDIuNzUzLjI4OHYxOS4wN3oiLz4mI3hhOwk8cGF0aCBjbGFzcz0ic3QyIiBkPSJNNDIuNzUzIDgwLjMxNGwxNi4yMTctNy41MjUgMjEuMDg0IDkuNzE3LTM3LjMwMSAxNy4zNzd6Ii8+JiN4YTs8L3N2Zz4=;" vertex="1" parent="1">
          <mxGeometry x="517" y="125" width="17" height="20.01" as="geometry" />
        </mxCell>
        <mxCell id="3EeU_wa0vUKyZ833sroe-169" value="" style="editableCssRules=.*;html=1;shape=image;verticalLabelPosition=bottom;labelBackgroundColor=#ffffff;verticalAlign=top;aspect=fixed;imageAspect=0;image=data:image/svg+xml,PHN2ZyB4bWxucz0iaHR0cDovL3d3dy53My5vcmcvMjAwMC9zdmciIHhtbG5zOnY9Imh0dHBzOi8vdmVjdGEuaW8vbmFubyIgd2lkdGg9IjMyMy45MDU2MTAzOTg2NzUxNSIgaGVpZ2h0PSIzNzYuNDIyMjk0OTYzNjg0MDciIHZpZXdCb3g9Ii0wLjA5NzAwMDAwMjg2MTAyMjk1IDAuMjg3OTk5OTg3NjAyMjMzOSA4NS42OTk5OTY5NDgyNDIxOSA5OS41OTUwMDEyMjA3MDMxMiI+JiN4YTs8c3R5bGUgdHlwZT0idGV4dC9jc3MiPiYjeGE7CS5zdDB7ZmlsbDojYWVjYmZhO30mI3hhOwkuc3Qxe2ZpbGw6IzY2OWRmNjt9JiN4YTsJLnN0MntmaWxsOiM0Mjg1ZjQ7fSYjeGE7PC9zdHlsZT4mI3hhOwk8cGF0aCBjbGFzcz0ic3QwIiBkPSJNLS4wOTcgNzUuODE1VjU1Ljg3NGw0Mi44NS0yMC4xODN2MTkuMDd6bTAtMzUuNDAzVjIwLjQ3MUw0Mi43NTMuMjg4djE5LjA3eiIvPiYjeGE7CTxwYXRoIGNsYXNzPSJzdDEiIGQ9Ik04NS42MDMgNzUuODE1VjU1Ljg3NGwtNDIuODUtMjAuMTgzdjE5LjA3em0wLTM1LjQwM1YyMC40NzFMNDIuNzUzLjI4OHYxOS4wN3oiLz4mI3hhOwk8cGF0aCBjbGFzcz0ic3QyIiBkPSJNNDIuNzUzIDgwLjMxNGwxNi4yMTctNy41MjUgMjEuMDg0IDkuNzE3LTM3LjMwMSAxNy4zNzd6Ii8+JiN4YTs8L3N2Zz4=;" vertex="1" parent="1">
          <mxGeometry x="517" y="311.99" width="17" height="20.01" as="geometry" />
        </mxCell>
        <mxCell id="3EeU_wa0vUKyZ833sroe-170" value="" style="editableCssRules=.*;html=1;shape=image;verticalLabelPosition=bottom;labelBackgroundColor=#ffffff;verticalAlign=top;aspect=fixed;imageAspect=0;image=data:image/svg+xml,PHN2ZyB4bWxucz0iaHR0cDovL3d3dy53My5vcmcvMjAwMC9zdmciIHhtbG5zOnY9Imh0dHBzOi8vdmVjdGEuaW8vbmFubyIgd2lkdGg9IjIwIiBoZWlnaHQ9IjE2IiB2aWV3Qm94PSIwIDAgMjAgMTYiPiYjeGE7CTxzdHlsZSB0eXBlPSJ0ZXh0L2NzcyI+JiN4YTsJLnN0MHtmaWxsOiM0Mjg1ZjQ7fSYjeGE7CS5zdDF7ZmlsbDojNjY5ZGY2O30mI3hhOwkuc3Qye2ZpbGw6I2FlY2JmYTt9JiN4YTsJLnN0M3tmaWxsOiNmZmY7fSYjeGE7CTwvc3R5bGU+JiN4YTsJPHBhdGggY2xhc3M9InN0MiIgZD0iTTAgMGgyMHY3SDB6Ii8+JiN4YTsJPHBhdGggY2xhc3M9InN0MSIgZD0iTTE4IDBoMnY3aC0yeiIvPiYjeGE7CTxwYXRoIGNsYXNzPSJzdDAiIGQ9Ik0xOCA3bDItN2gtMnoiLz4mI3hhOwk8cGF0aCBjbGFzcz0ic3QxIiBkPSJNMCAwaDJ2N0gweiIvPiYjeGE7CTxnIGNsYXNzPSJzdDMiPiYjeGE7CQk8cGF0aCBkPSJNNCAzaDZ2MUg0eiIvPiYjeGE7CQk8cmVjdCB4PSIxMyIgeT0iMiIgd2lkdGg9IjMiIGhlaWdodD0iMyIgcng9IjEuNSIvPiYjeGE7CTwvZz4mI3hhOwk8cGF0aCBjbGFzcz0ic3QyIiBkPSJNMCA5aDIwdjdIMHoiLz4mI3hhOwk8cGF0aCBjbGFzcz0ic3QxIiBkPSJNMTggOWgydjdoLTJ6Ii8+JiN4YTsJPHBhdGggY2xhc3M9InN0MCIgZD0iTTE4IDE2bDItN2gtMnoiLz4mI3hhOwk8cGF0aCBjbGFzcz0ic3QxIiBkPSJNMCA5aDJ2N0gweiIvPiYjeGE7CTxnIGNsYXNzPSJzdDMiPiYjeGE7CQk8cGF0aCBkPSJNNCAxMmg2djFINHoiLz4mI3hhOwkJPHJlY3QgeD0iMTMiIHk9IjExIiB3aWR0aD0iMyIgaGVpZ2h0PSIzIiByeD0iMS41Ii8+JiN4YTsJPC9nPiYjeGE7PC9zdmc+;" vertex="1" parent="1">
          <mxGeometry x="165.49" y="547.5" width="17.51" height="14.01" as="geometry" />
        </mxCell>
        <mxCell id="3EeU_wa0vUKyZ833sroe-172" value="Cloud Storage" style="text;html=1;align=center;verticalAlign=middle;whiteSpace=wrap;rounded=0;" vertex="1" parent="1">
          <mxGeometry x="176.16999999999996" y="544.5" width="99.83" height="20" as="geometry" />
        </mxCell>
        <mxCell id="3EeU_wa0vUKyZ833sroe-174" value="" style="rounded=1;whiteSpace=wrap;html=1;" vertex="1" parent="1">
          <mxGeometry x="326.5" y="612.51" width="110" height="32" as="geometry" />
        </mxCell>
        <mxCell id="3EeU_wa0vUKyZ833sroe-176" value="defect-reports-&amp;lt;tenantId&amp;gt;" style="text;html=1;align=center;verticalAlign=middle;whiteSpace=wrap;rounded=0;fontSize=11;" vertex="1" parent="1">
          <mxGeometry x="354.84000000000003" y="618.51" width="82.66" height="20" as="geometry" />
        </mxCell>
        <mxCell id="3EeU_wa0vUKyZ833sroe-180" value="" style="sketch=0;outlineConnect=0;fontColor=#232F3E;gradientColor=none;fillColor=#000000;strokeColor=none;dashed=0;verticalLabelPosition=bottom;verticalAlign=top;align=center;html=1;fontSize=12;fontStyle=0;aspect=fixed;pointerEvents=1;shape=mxgraph.aws4.bucket;" vertex="1" parent="1">
          <mxGeometry x="334.16999999999996" y="618.51" width="19.23" height="20" as="geometry" />
        </mxCell>
        <mxCell id="3EeU_wa0vUKyZ833sroe-181" value="" style="rounded=1;whiteSpace=wrap;html=1;" vertex="1" parent="1">
          <mxGeometry x="186.5" y="571" width="110" height="32" as="geometry" />
        </mxCell>
        <mxCell id="3EeU_wa0vUKyZ833sroe-182" value="gcf-source" style="text;html=1;align=center;verticalAlign=middle;whiteSpace=wrap;rounded=0;fontSize=11;" vertex="1" parent="1">
          <mxGeometry x="214.84" y="577" width="82.66" height="20" as="geometry" />
        </mxCell>
        <mxCell id="3EeU_wa0vUKyZ833sroe-183" value="" style="sketch=0;outlineConnect=0;fontColor=#232F3E;gradientColor=none;fillColor=#000000;strokeColor=none;dashed=0;verticalLabelPosition=bottom;verticalAlign=top;align=center;html=1;fontSize=12;fontStyle=0;aspect=fixed;pointerEvents=1;shape=mxgraph.aws4.bucket;" vertex="1" parent="1">
          <mxGeometry x="194.16999999999996" y="577" width="19.23" height="20" as="geometry" />
        </mxCell>
        <mxCell id="3EeU_wa0vUKyZ833sroe-184" value="" style="rounded=1;whiteSpace=wrap;html=1;" vertex="1" parent="1">
          <mxGeometry x="186.5" y="612" width="110" height="32" as="geometry" />
        </mxCell>
        <mxCell id="3EeU_wa0vUKyZ833sroe-185" value="terraform-state" style="text;html=1;align=center;verticalAlign=middle;whiteSpace=wrap;rounded=0;fontSize=11;" vertex="1" parent="1">
          <mxGeometry x="214.84" y="618" width="82.66" height="20" as="geometry" />
        </mxCell>
        <mxCell id="3EeU_wa0vUKyZ833sroe-186" value="" style="sketch=0;outlineConnect=0;fontColor=#232F3E;gradientColor=none;fillColor=#000000;strokeColor=none;dashed=0;verticalLabelPosition=bottom;verticalAlign=top;align=center;html=1;fontSize=12;fontStyle=0;aspect=fixed;pointerEvents=1;shape=mxgraph.aws4.bucket;" vertex="1" parent="1">
          <mxGeometry x="194.16999999999996" y="618" width="19.23" height="20" as="geometry" />
        </mxCell>
        <mxCell id="3EeU_wa0vUKyZ833sroe-187" value="" style="rounded=1;whiteSpace=wrap;html=1;" vertex="1" parent="1">
          <mxGeometry x="326" y="561.51" width="110" height="32" as="geometry" />
        </mxCell>
        <mxCell id="3EeU_wa0vUKyZ833sroe-188" value="prop-ma-&amp;lt;tenantId&amp;gt;" style="text;html=1;align=center;verticalAlign=middle;whiteSpace=wrap;rounded=0;fontSize=11;" vertex="1" parent="1">
          <mxGeometry x="354.34000000000003" y="567.51" width="82.66" height="20" as="geometry" />
        </mxCell>
        <mxCell id="3EeU_wa0vUKyZ833sroe-189" value="" style="sketch=0;outlineConnect=0;fontColor=#232F3E;gradientColor=none;fillColor=#000000;strokeColor=none;dashed=0;verticalLabelPosition=bottom;verticalAlign=top;align=center;html=1;fontSize=12;fontStyle=0;aspect=fixed;pointerEvents=1;shape=mxgraph.aws4.bucket;" vertex="1" parent="1">
          <mxGeometry x="333.66999999999996" y="567.51" width="19.23" height="20" as="geometry" />
        </mxCell>
      </root>
    </mxGraphModel>
  </diagram>
</mxfile>
